<svg xmlns="http://www.w3.org/2000/svg" xmlns:xlink="http://www.w3.org/1999/xlink" id="processonSvg1000" viewBox="150.70174306412474 51.75 950.5484023705653 1050.25" width="950.5484023705653" height="1050.25"><defs id="ProcessOnDefs1001"><marker id="ProcessOnMarker1028" markerUnits="userSpaceOnUse" orient="auto" markerWidth="13.144543434498276" markerHeight="18.246037666503607" viewBox="-0.29389262614623657 -0.4045084971874737 13.144543434498276 18.246037666503607" refX="12.0" refY="8.71851033606433"><path id="ProcessOnPath1029" d="M0 0L12.0 8.71851033606433L0 17.43702067212866" stroke="#2d6ec9" stroke-width="1.0" fill="none" transform="matrix(1.0,0.0,0.0,1.0,0.0,0.0)"/></marker><marker id="ProcessOnMarker1036" markerUnits="userSpaceOnUse" orient="auto" markerWidth="13.144543434498276" markerHeight="18.246037666503607" viewBox="-0.29389262614623657 -0.4045084971874737 13.144543434498276 18.246037666503607" refX="12.0" refY="8.71851033606433"><path id="ProcessOnPath1037" d="M0 0L12.0 8.71851033606433L0 17.43702067212866" stroke="#2d6ec9" stroke-width="1.0" fill="none" transform="matrix(1.0,0.0,0.0,1.0,0.0,0.0)"/></marker><marker id="ProcessOnMarker1059" markerUnits="userSpaceOnUse" orient="auto" markerWidth="13.144543434498276" markerHeight="18.246037666503607" viewBox="-0.29389262614623657 -0.4045084971874737 13.144543434498276 18.246037666503607" refX="12.0" refY="8.71851033606433"><path id="ProcessOnPath1060" d="M0 0L12.0 8.71851033606433L0 17.43702067212866" stroke="#2d6ec9" stroke-width="1.0" fill="none" transform="matrix(1.0,0.0,0.0,1.0,0.0,0.0)"/></marker><marker id="ProcessOnMarker1063" markerUnits="userSpaceOnUse" orient="auto" markerWidth="13.144543434498276" markerHeight="18.246037666503607" viewBox="-0.29389262614623657 -0.4045084971874737 13.144543434498276 18.246037666503607" refX="12.0" refY="8.71851033606433"><path id="ProcessOnPath1064" d="M0 0L12.0 8.71851033606433L0 17.43702067212866" stroke="#2d6ec9" stroke-width="1.0" fill="none" transform="matrix(1.0,0.0,0.0,1.0,0.0,0.0)"/></marker><marker id="ProcessOnMarker1097" markerUnits="userSpaceOnUse" orient="auto" markerWidth="13.144543434498276" markerHeight="18.246037666503607" viewBox="-0.29389262614623657 -0.4045084971874737 13.144543434498276 18.246037666503607" refX="12.0" refY="8.71851033606433"><path id="ProcessOnPath1098" d="M0 0L12.0 8.71851033606433L0 17.43702067212866" stroke="#2d6ec9" stroke-width="1.0" fill="none" transform="matrix(1.0,0.0,0.0,1.0,0.0,0.0)"/></marker><marker id="ProcessOnMarker1101" markerUnits="userSpaceOnUse" orient="auto" markerWidth="13.144543434498276" markerHeight="18.246037666503607" viewBox="-0.29389262614623657 -0.4045084971874737 13.144543434498276 18.246037666503607" refX="12.0" refY="8.71851033606433"><path id="ProcessOnPath1102" d="M0 0L12.0 8.71851033606433L0 17.43702067212866" stroke="#2d6ec9" stroke-width="1.0" fill="none" transform="matrix(1.0,0.0,0.0,1.0,0.0,0.0)"/></marker><marker id="ProcessOnMarker1105" markerUnits="userSpaceOnUse" orient="auto" markerWidth="13.144543434498276" markerHeight="18.246037666503607" viewBox="-0.29389262614623657 -0.4045084971874737 13.144543434498276 18.246037666503607" refX="12.0" refY="8.71851033606433"><path id="ProcessOnPath1106" d="M0 0L12.0 8.71851033606433L0 17.43702067212866" stroke="#2d6ec9" stroke-width="1.0" fill="none" transform="matrix(1.0,0.0,0.0,1.0,0.0,0.0)"/></marker><marker id="ProcessOnMarker1113" markerUnits="userSpaceOnUse" orient="auto" markerWidth="13.144543434498276" markerHeight="18.246037666503607" viewBox="-0.29389262614623657 -0.4045084971874737 13.144543434498276 18.246037666503607" refX="12.0" refY="8.71851033606433"><path id="ProcessOnPath1114" d="M0 0L12.0 8.71851033606433L0 17.43702067212866" stroke="#2d6ec9" stroke-width="1.0" fill="none" transform="matrix(1.0,0.0,0.0,1.0,0.0,0.0)"/></marker><marker id="ProcessOnMarker1122" markerUnits="userSpaceOnUse" orient="auto" markerWidth="13.144543434498276" markerHeight="18.246037666503607" viewBox="-0.29389262614623657 -0.4045084971874737 13.144543434498276 18.246037666503607" refX="12.0" refY="8.71851033606433"><path id="ProcessOnPath1123" d="M0 0L12.0 8.71851033606433L0 17.43702067212866" stroke="#2d6ec9" stroke-width="1.0" fill="none" transform="matrix(1.0,0.0,0.0,1.0,0.0,0.0)"/></marker><marker id="ProcessOnMarker1132" markerUnits="userSpaceOnUse" orient="auto" markerWidth="13.144543434498276" markerHeight="18.246037666503607" viewBox="-0.29389262614623657 -0.4045084971874737 13.144543434498276 18.246037666503607" refX="12.0" refY="8.71851033606433"><path id="ProcessOnPath1133" d="M0 0L12.0 8.71851033606433L0 17.43702067212866" stroke="#2d6ec9" stroke-width="1.0" fill="none" transform="matrix(1.0,0.0,0.0,1.0,0.0,0.0)"/></marker><marker id="ProcessOnMarker1140" markerUnits="userSpaceOnUse" orient="auto" markerWidth="13.144543434498276" markerHeight="18.246037666503607" viewBox="-0.29389262614623657 -0.4045084971874737 13.144543434498276 18.246037666503607" refX="12.0" refY="8.71851033606433"><path id="ProcessOnPath1141" d="M0 0L12.0 8.71851033606433L0 17.43702067212866" stroke="#2d6ec9" stroke-width="1.0" fill="none" transform="matrix(1.0,0.0,0.0,1.0,0.0,0.0)"/></marker><marker id="ProcessOnMarker1144" markerUnits="userSpaceOnUse" orient="auto" markerWidth="13.144543434498276" markerHeight="18.246037666503607" viewBox="-0.29389262614623657 -0.4045084971874737 13.144543434498276 18.246037666503607" refX="12.0" refY="8.71851033606433"><path id="ProcessOnPath1145" d="M0 0L12.0 8.71851033606433L0 17.43702067212866" stroke="#2d6ec9" stroke-width="1.0" fill="none" transform="matrix(1.0,0.0,0.0,1.0,0.0,0.0)"/></marker><marker id="ProcessOnMarker1148" markerUnits="userSpaceOnUse" orient="auto" markerWidth="13.144543434498276" markerHeight="18.246037666503607" viewBox="-0.29389262614623657 -0.4045084971874737 13.144543434498276 18.246037666503607" refX="12.0" refY="8.71851033606433"><path id="ProcessOnPath1149" d="M0 0L12.0 8.71851033606433L0 17.43702067212866" stroke="#2d6ec9" stroke-width="1.0" fill="none" transform="matrix(1.0,0.0,0.0,1.0,0.0,0.0)"/></marker></defs><g id="ProcessOnG1002"><path id="ProcessOnPath1003" d="M150.70174306412474 51.75H1101.25014543469V1102.0H150.70174306412468V51.75Z" fill="none"/><g id="ProcessOnG1004"><g id="ProcessOnG1005" transform="matrix(1.0,0.0,0.0,1.0,170.70189803555786,441.9124010876928)" opacity="1.0"><path id="ProcessOnPath1006" d="M0.0 0.0L910.548092427699 0.0L910.548092427699 238.08759891230721L0.0 238.08759891230721Z" stroke="#ffffff" stroke-width="2.0" stroke-dasharray="none" fill="#ff9999"/></g><g id="ProcessOnG1007" transform="matrix(1.0,0.0,0.0,1.0,170.70174306412474,71.75)" opacity="1.0"><path id="ProcessOnPath1008" d="M0.0 0.0L224.34014729403984 0.0L224.34014729403984 1010.25L0.0 1010.25Z" stroke="#2d6ec9" stroke-width="1.0" stroke-dasharray="none" fill="none"/><path id="ProcessOnPath1009" d="M0.0 0.0L224.34014729403984 0.0L224.34014729403984 40.0L0.0 40.0Z" stroke="#2d6ec9" stroke-width="1.0" stroke-dasharray="none" fill="#ffffff"/><g id="ProcessOnG1010" transform="matrix(1.0,0.0,0.0,1.0,10.0,10.625)"><text id="ProcessOnText1011" fill="#2d6ec9" font-size="15" x="101.17007364701992" y="15.375" font-family="宋体" font-weight="normal" font-style="normal" text-decoration="none" family="宋体" text-anchor="middle" size="15">触摸事件</text></g></g><g id="ProcessOnG1012" transform="matrix(1.0,0.0,0.0,1.0,395.04189035816455,71.75)" opacity="1.0"><path id="ProcessOnPath1013" d="M0.0 0.0L227.62718241922727 0.0L227.62718241922727 1010.25L0.0 1010.25Z" stroke="#2d6ec9" stroke-width="1.0" stroke-dasharray="none" fill="none"/><path id="ProcessOnPath1014" d="M0.0 0.0L227.62718241922727 0.0L227.62718241922727 40.0L0.0 40.0Z" stroke="#2d6ec9" stroke-width="1.0" stroke-dasharray="none" fill="#ffffff"/><g id="ProcessOnG1015" transform="matrix(1.0,0.0,0.0,1.0,10.0,10.625)"><text id="ProcessOnText1016" fill="#2d6ec9" font-size="15" x="102.81359120961363" y="15.375" font-family="宋体" font-weight="normal" font-style="normal" text-decoration="none" family="宋体" text-anchor="middle" size="15">辅助操作</text></g></g><g id="ProcessOnG1017" transform="matrix(1.0,0.0,0.0,1.0,622.7087454710479,71.75)" opacity="1.0"><path id="ProcessOnPath1018" d="M0.0 0.0L229.27069998182097 0.0L229.27069998182097 1010.25L0.0 1010.25Z" stroke="#2d6ec9" stroke-width="1.0" stroke-dasharray="none" fill="none"/><path id="ProcessOnPath1019" d="M0.0 0.0L229.27069998182097 0.0L229.27069998182097 40.0L0.0 40.0Z" stroke="#2d6ec9" stroke-width="1.0" stroke-dasharray="none" fill="#ffffff"/><g id="ProcessOnG1020" transform="matrix(1.0,0.0,0.0,1.0,10.0,10.625)"><text id="ProcessOnText1021" fill="#2d6ec9" font-size="15" x="103.63534999091048" y="15.375" font-family="宋体" font-weight="normal" font-style="normal" text-decoration="none" family="宋体" text-anchor="middle" size="15">Bitmap</text></g></g><g id="ProcessOnG1022" transform="matrix(1.0,0.0,0.0,1.0,221.51595228609298,139.44781317064707)" opacity="1.0"><path id="ProcessOnPath1023" d="M0.0 0.0L117.4580339159512 0.0L117.4580339159512 43.754682335659204L0.0 43.754682335659204Z" stroke="none" stroke-width="0.0" stroke-dasharray="none" fill="#2d6ec9"/><g id="ProcessOnG1024" transform="matrix(1.0,0.0,0.0,1.0,10.0,12.502341167829602)"><text id="ProcessOnText1025" fill="#ffffff" font-size="15" x="47.7290169579756" y="15.375" font-family="宋体" font-weight="normal" font-style="normal" text-decoration="none" family="宋体" text-anchor="middle" size="15">Down</text></g></g><g id="ProcessOnG1026"><path id="ProcessOnPath1027" d="M280.2449692440686 183.20249550630632L280.2449692440686 341.6402327880412L280.24593781552625 341.6402327880412L280.24593781552625 500.07797006977603" stroke="#2d6ec9" stroke-width="1.0" stroke-dasharray="none" fill="none" marker-end="url(#ProcessOnMarker1028)"/></g><g id="ProcessOnG1030" transform="matrix(1.0,0.0,0.0,1.0,221.51692085755053,500.07797006977603)" opacity="1.0"><path id="ProcessOnPath1031" d="M0.0 0.0L117.4580339159512 0.0L117.4580339159512 43.754682335659204L0.0 43.754682335659204Z" stroke="none" stroke-width="0.0" stroke-dasharray="none" fill="#2d6ec9"/><g id="ProcessOnG1032" transform="matrix(1.0,0.0,0.0,1.0,10.0,12.502341167829602)"><text id="ProcessOnText1033" fill="#ffffff" font-size="15" x="47.7290169579756" y="15.375" font-family="宋体" font-weight="normal" font-style="normal" text-decoration="none" family="宋体" text-anchor="middle" size="15">move</text></g></g><g id="ProcessOnG1034"><path id="ProcessOnPath1035" d="M280.24593781552625 543.8326524054352L280.24593781552625 648.4049876055822L280.24593781552613 648.4049876055822L280.24593781552613 752.9773228057292" stroke="#2d6ec9" stroke-width="1.0" stroke-dasharray="none" fill="none" marker-end="url(#ProcessOnMarker1036)"/></g><g id="ProcessOnG1038" transform="matrix(1.0,0.0,0.0,1.0,221.51692085755053,752.9773228057292)" opacity="1.0"><path id="ProcessOnPath1039" d="M0.0 0.0L117.4580339159512 0.0L117.4580339159512 40.452442159383025L0.0 40.452442159383025Z" stroke="none" stroke-width="0.0" stroke-dasharray="none" fill="#2d6ec9"/><g id="ProcessOnG1040" transform="matrix(1.0,0.0,0.0,1.0,10.0,10.851221079691513)"><text id="ProcessOnText1041" fill="#ffffff" font-size="15" x="47.7290169579756" y="15.375" font-family="宋体" font-weight="normal" font-style="normal" text-decoration="none" family="宋体" text-anchor="middle" size="15">up</text></g></g><g id="ProcessOnG1042" transform="matrix(1.0,0.0,0.0,1.0,916.2998603922865,485.0)" opacity="1.0"><path id="ProcessOnPath1043" d="M0.0 0.0L121.70013960771348 0.0L121.70013960771348 73.9106224752112L0.0 73.9106224752112Z" stroke="none" stroke-width="0.0" stroke-dasharray="none" fill="#2d6ec9"/><g id="ProcessOnG1044" transform="matrix(1.0,0.0,0.0,1.0,10.0,8.8303112376056)"><text id="ProcessOnText1045" fill="#ffffff" font-size="15" x="49.85006980385674" y="15.375" font-family="宋体" font-weight="normal" font-style="normal" text-decoration="none" family="宋体" text-anchor="middle" size="15">用bitmap清除</text><text id="ProcessOnText1046" fill="#ffffff" font-size="15" x="49.85006980385674" y="34.125" font-family="宋体" font-weight="normal" font-style="normal" text-decoration="none" family="宋体" text-anchor="middle" size="15">上一个位置图</text><text id="ProcessOnText1047" fill="#ffffff" font-size="15" x="49.85006980385674" y="52.875" font-family="宋体" font-weight="normal" font-style="normal" text-decoration="none" family="宋体" text-anchor="middle" size="15">标</text></g></g><g id="ProcessOnG1048" transform="matrix(1.0,0.0,0.0,1.0,851.979445452869,71.75)" opacity="1.0"><path id="ProcessOnPath1049" d="M0.0 0.0L229.27069998182097 0.0L229.27069998182097 1010.25L0.0 1010.25Z" stroke="#2d6ec9" stroke-width="1.0" stroke-dasharray="none" fill="none"/><path id="ProcessOnPath1050" d="M0.0 0.0L229.27069998182097 0.0L229.27069998182097 40.0L0.0 40.0Z" stroke="#2d6ec9" stroke-width="1.0" stroke-dasharray="none" fill="#ffffff"/><g id="ProcessOnG1051" transform="matrix(1.0,0.0,0.0,1.0,10.0,10.625)"><text id="ProcessOnText1052" fill="#2d6ec9" font-size="15" x="103.63534999091048" y="15.375" font-family="宋体" font-weight="normal" font-style="normal" text-decoration="none" family="宋体" text-anchor="middle" size="15">framebuffer</text></g></g><g id="ProcessOnG1053" transform="matrix(1.0,0.0,0.0,1.0,459.29986039228663,141.09893325878517)" opacity="1.0"><path id="ProcessOnPath1054" d="M0.0 0.0L117.4580339159512 0.0L117.4580339159512 40.452442159383025L0.0 40.452442159383025Z" stroke="none" stroke-width="0.0" stroke-dasharray="none" fill="#2d6ec9"/><g id="ProcessOnG1055" transform="matrix(1.0,0.0,0.0,1.0,10.0,10.851221079691513)"><text id="ProcessOnText1056" fill="#ffffff" font-size="15" x="47.7290169579756" y="15.375" font-family="宋体" font-weight="normal" font-style="normal" text-decoration="none" family="宋体" text-anchor="middle" size="15">lock屏幕</text></g></g><g id="ProcessOnG1057"><path id="ProcessOnPath1058" d="M338.9739862020443 161.3251543384767L399.1369232971655 161.3251543384767L399.1369232971655 161.32515433847666L459.29986039228663 161.32515433847666" stroke="#2d6ec9" stroke-width="1.0" stroke-dasharray="none" fill="none" marker-end="url(#ProcessOnMarker1059)"/></g><g id="ProcessOnG1061"><path id="ProcessOnPath1062" d="M338.9749547735018 521.9553112376055L627.6374075828942 521.9553112376055L627.6374075828942 521.9553112376057L916.2998603922865 521.9553112376057" stroke="#2d6ec9" stroke-width="1.0" stroke-dasharray="none" fill="none" marker-end="url(#ProcessOnMarker1063)"/></g><g id="ProcessOnG1065" transform="matrix(1.0,0.0,0.0,1.0,682.2223432702464,864.2220679927743)" opacity="1.0"><path id="ProcessOnPath1066" d="M0.0 0.0L117.45798307148698 0.0L117.45798307148698 57.77793200722567L0.0 57.77793200722567Z" stroke="none" stroke-width="0.0" stroke-dasharray="none" fill="#2d6ec9"/><g id="ProcessOnG1067" transform="matrix(1.0,0.0,0.0,1.0,10.0,10.138966003612836)"><text id="ProcessOnText1068" fill="#ffffff" font-size="15" x="47.72899153574349" y="15.375" font-family="宋体" font-weight="normal" font-style="normal" text-decoration="none" family="宋体" text-anchor="middle" size="15">绘制bitmap</text><text id="ProcessOnText1069" fill="#ffffff" font-size="15" x="47.72899153574349" y="34.125" font-family="宋体" font-weight="normal" font-style="normal" text-decoration="none" family="宋体" text-anchor="middle" size="15">(drawPath)</text></g></g><g id="ProcessOnG1070" transform="matrix(1.0,0.0,0.0,1.0,453.7338653360409,975.7562431142122)" opacity="1.0"><path id="ProcessOnPath1071" d="M0.0 0.0L117.4580339159512 0.0L117.4580339159512 40.452442159383025L0.0 40.452442159383025Z" stroke="none" stroke-width="0.0" stroke-dasharray="none" fill="#2d6ec9"/><g id="ProcessOnG1072" transform="matrix(1.0,0.0,0.0,1.0,10.0,10.851221079691513)"><text id="ProcessOnText1073" fill="#ffffff" font-size="15" x="47.7290169579756" y="15.375" font-family="宋体" font-weight="normal" font-style="normal" text-decoration="none" family="宋体" text-anchor="middle" size="15">unlock屏幕</text></g></g><g id="ProcessOnG1074" transform="matrix(1.0,0.0,0.0,1.0,453.7338653360409,1016.2086852735953)" opacity="1.0"><path id="ProcessOnPath1075" d="M0.0 0.0L117.4580339159512 0.0L117.4580339159512 40.452442159383025L0.0 40.452442159383025Z" stroke="none" stroke-width="0.0" stroke-dasharray="none" fill="#2d6ec9"/><g id="ProcessOnG1076" transform="matrix(1.0,0.0,0.0,1.0,10.0,10.851221079691513)"><text id="ProcessOnText1077" fill="#ffffff" font-size="15" x="47.7290169579756" y="15.375" font-family="宋体" font-weight="normal" font-style="normal" text-decoration="none" family="宋体" text-anchor="middle" size="15">刷新view</text></g></g><g id="ProcessOnG1078" transform="matrix(1.0,0.0,0.0,1.0,177.5,451.25)" opacity="1.0"><path id="ProcessOnPath1079" d="M0.0 0.0L75.0 0.0L75.0 33.75L0.0 33.75Z" stroke="none" stroke-width="0.0" stroke-dasharray="none" fill="none"/><g id="ProcessOnG1080" transform="matrix(1.0,0.0,0.0,1.0,0.0,7.5)"><text id="ProcessOnText1081" fill="#323232" font-size="15" x="36.5" y="15.375" font-family="宋体" font-weight="normal" font-style="normal" text-decoration="none" family="宋体" text-anchor="middle" size="15">重复调用</text></g></g><g id="ProcessOnG1082" transform="matrix(1.0,0.0,0.0,1.0,459.2998603922867,222.64184763551043)" opacity="1.0"><path id="ProcessOnPath1083" d="M0.0 0.0L117.4580339159512 0.0L117.4580339159512 40.452442159383025L0.0 40.452442159383025Z" stroke="none" stroke-width="0.0" stroke-dasharray="none" fill="#2d6ec9"/><g id="ProcessOnG1084" transform="matrix(1.0,0.0,0.0,1.0,10.0,10.851221079691513)"><text id="ProcessOnText1085" fill="#ffffff" font-size="15" x="47.7290169579756" y="15.375" font-family="宋体" font-weight="normal" font-style="normal" text-decoration="none" family="宋体" text-anchor="middle" size="15">橡皮擦属性</text></g></g><g id="ProcessOnG1086" transform="matrix(1.0,0.0,0.0,1.0,459.29986039228675,309.16066838046277)" opacity="1.0"><path id="ProcessOnPath1087" d="M0.0 0.0L117.4580339159512 0.0L117.4580339159512 40.452442159383025L0.0 40.452442159383025Z" stroke="none" stroke-width="0.0" stroke-dasharray="none" fill="#2d6ec9"/><g id="ProcessOnG1088" transform="matrix(1.0,0.0,0.0,1.0,10.0,10.851221079691513)"><text id="ProcessOnText1089" fill="#ffffff" font-size="15" x="47.7290169579756" y="15.375" font-family="宋体" font-weight="normal" font-style="normal" text-decoration="none" family="宋体" text-anchor="middle" size="15">橡皮擦图标</text></g></g><g id="ProcessOnG1090" transform="matrix(1.0,0.0,0.0,1.0,676.2998603922866,300.2737789203085)" opacity="1.0"><path id="ProcessOnPath1091" d="M0.0 0.0L129.30294882740645 0.0L129.30294882740645 58.22622107969153L0.0 58.22622107969153Z" stroke="none" stroke-width="0.0" stroke-dasharray="none" fill="#2d6ec9"/><g id="ProcessOnG1092" transform="matrix(1.0,0.0,0.0,1.0,10.0,10.363110539845763)"><text id="ProcessOnText1093" fill="#ffffff" font-size="15" x="53.65147441370323" y="15.375" font-family="宋体" font-weight="normal" font-style="normal" text-decoration="none" family="宋体" text-anchor="middle" size="15">画背景与不可擦</text><text id="ProcessOnText1094" fill="#ffffff" font-size="15" x="53.65147441370323" y="34.125" font-family="宋体" font-weight="normal" font-style="normal" text-decoration="none" family="宋体" text-anchor="middle" size="15">除内容</text></g></g><g id="ProcessOnG1095"><path id="ProcessOnPath1096" d="M518.0288773502623 263.0942897948935L518.0288773502623 286.1274790876781L518.0288773502623 286.1274790876781L518.0288773502623 309.16066838046277" stroke="#2d6ec9" stroke-width="1.0" stroke-dasharray="none" fill="none" marker-end="url(#ProcessOnMarker1097)"/></g><g id="ProcessOnG1099"><path id="ProcessOnPath1100" d="M518.0288773502623 181.5513754181682L518.0288773502623 202.0966115268393L518.0288773502623 202.0966115268393L518.0288773502623 222.64184763551043" stroke="#2d6ec9" stroke-width="1.0" stroke-dasharray="none" fill="none" marker-end="url(#ProcessOnMarker1101)"/></g><g id="ProcessOnG1103"><path id="ProcessOnPath1104" d="M576.7578943082378 329.3868894601543L626.5288773502623 329.3868894601543L626.5288773502623 329.38688946015424L676.2998603922866 329.38688946015424" stroke="#2d6ec9" stroke-width="1.0" stroke-dasharray="none" fill="none" marker-end="url(#ProcessOnMarker1105)"/></g><g id="ProcessOnG1107" transform="matrix(1.0,0.0,0.0,1.0,916.2998603922865,299.7737789203085)" opacity="1.0"><path id="ProcessOnPath1108" d="M0.0 0.0L117.45803391595132 0.0L117.45803391595132 59.22622107969153L0.0 59.22622107969153Z" stroke="none" stroke-width="0.0" stroke-dasharray="none" fill="#2d6ec9"/><g id="ProcessOnG1109" transform="matrix(1.0,0.0,0.0,1.0,10.0,20.238110539845763)"><text id="ProcessOnText1110" fill="#ffffff" font-size="15" x="47.72901695797566" y="15.375" font-family="宋体" font-weight="normal" font-style="normal" text-decoration="none" family="宋体" text-anchor="middle" size="15">画橡皮擦图标</text></g></g><g id="ProcessOnG1111"><path id="ProcessOnPath1112" d="M805.6028092196931 329.38688946015424L860.9513348059897 329.38688946015424L860.9513348059897 329.38688946015424L916.2998603922865 329.38688946015424" stroke="#2d6ec9" stroke-width="1.0" stroke-dasharray="none" fill="none" marker-end="url(#ProcessOnMarker1113)"/></g><g id="ProcessOnG1115" transform="matrix(1.0,0.0,0.0,1.0,918.4209132381676,597.6844013955197)" opacity="1.0"><path id="ProcessOnPath1116" d="M0.0 0.0L117.45803391595132 0.0L117.45803391595132 54.63119720896066L0.0 54.63119720896066Z" stroke="none" stroke-width="0.0" stroke-dasharray="none" fill="#2d6ec9"/><g id="ProcessOnG1117" transform="matrix(1.0,0.0,0.0,1.0,10.0,8.565598604480329)"><text id="ProcessOnText1118" fill="#ffffff" font-size="15" x="47.72901695797566" y="15.375" font-family="宋体" font-weight="normal" font-style="normal" text-decoration="none" family="宋体" text-anchor="middle" size="15">绘制当前位置</text><text id="ProcessOnText1119" fill="#ffffff" font-size="15" x="47.72901695797566" y="34.125" font-family="宋体" font-weight="normal" font-style="normal" text-decoration="none" family="宋体" text-anchor="middle" size="15">图标</text></g></g><g id="ProcessOnG1120"><path id="ProcessOnPath1121" d="M977.1499301961433 558.9106224752112L977.1499301961433 578.2975119353655L977.1499301961433 578.2975119353655L977.1499301961433 597.6844013955197" stroke="#2d6ec9" stroke-width="1.0" stroke-dasharray="none" fill="none" marker-end="url(#ProcessOnMarker1122)"/></g><g id="ProcessOnG1124" transform="matrix(1.0,0.0,0.0,1.0,916.2998603922865,736.248232647815)" opacity="1.0"><path id="ProcessOnPath1125" d="M0.0 0.0L121.70013960771348 0.0L121.70013960771348 73.9106224752112L0.0 73.9106224752112Z" stroke="none" stroke-width="0.0" stroke-dasharray="none" fill="#2d6ec9"/><g id="ProcessOnG1126" transform="matrix(1.0,0.0,0.0,1.0,10.0,8.8303112376056)"><text id="ProcessOnText1127" fill="#ffffff" font-size="15" x="49.85006980385674" y="15.375" font-family="宋体" font-weight="normal" font-style="normal" text-decoration="none" family="宋体" text-anchor="middle" size="15">用bitmap清除</text><text id="ProcessOnText1128" fill="#ffffff" font-size="15" x="49.85006980385674" y="34.125" font-family="宋体" font-weight="normal" font-style="normal" text-decoration="none" family="宋体" text-anchor="middle" size="15">上一个位置图</text><text id="ProcessOnText1129" fill="#ffffff" font-size="15" x="49.85006980385674" y="52.875" font-family="宋体" font-weight="normal" font-style="normal" text-decoration="none" family="宋体" text-anchor="middle" size="15">标</text></g></g><g id="ProcessOnG1130"><path id="ProcessOnPath1131" d="M338.97495477350174 773.2035438854207L627.6374075828942 773.2035438854207L627.6374075828942 773.2035438854207L916.2998603922865 773.2035438854207" stroke="#2d6ec9" stroke-width="1.0" stroke-dasharray="none" fill="none" marker-end="url(#ProcessOnMarker1132)"/></g><g id="ProcessOnG1134" transform="matrix(1.0,0.0,0.0,1.0,453.733890758273,810.1588551230262)" opacity="1.0"><path id="ProcessOnPath1135" d="M0.0 0.0L117.45798307148698 0.0L117.45798307148698 46.49330864041053L0.0 46.49330864041053Z" stroke="none" stroke-width="0.0" stroke-dasharray="none" fill="#2d6ec9"/><g id="ProcessOnG1136" transform="matrix(1.0,0.0,0.0,1.0,10.0,13.871654320205266)"><text id="ProcessOnText1137" fill="#ffffff" font-size="15" x="47.72899153574349" y="15.375" font-family="宋体" font-weight="normal" font-style="normal" text-decoration="none" family="宋体" text-anchor="middle" size="15">切割Path</text></g></g><g id="ProcessOnG1138"><path id="ProcessOnPath1139" d="M977.1499301961433 810.1588551230262L977.1499301961433 833.4055094432315L571.19187382976 833.4055094432315" stroke="#2d6ec9" stroke-width="1.0" stroke-dasharray="none" fill="none" marker-end="url(#ProcessOnMarker1140)"/></g><g id="ProcessOnG1142"><path id="ProcessOnPath1143" d="M512.4628822940165 856.6521637634368L512.4628822940165 893.1110339963872L682.2223432702464 893.1110339963872" stroke="#2d6ec9" stroke-width="1.0" stroke-dasharray="none" fill="none" marker-end="url(#ProcessOnMarker1144)"/></g><g id="ProcessOnG1146"><path id="ProcessOnPath1147" d="M740.9513348059899 922.0L740.9513348059899 948.8781215571062L512.4628822940165 948.8781215571062L512.4628822940165 975.7562431142122" stroke="#2d6ec9" stroke-width="1.0" stroke-dasharray="none" fill="none" marker-end="url(#ProcessOnMarker1148)"/></g></g></g></svg>