<svg xmlns="http://www.w3.org/2000/svg" xmlns:xlink="http://www.w3.org/1999/xlink" id="processonSvg1000" viewBox="150.70189803555783 51.75 950.548092427699 602.0" width="950.548092427699" height="602.0"><defs id="ProcessOnDefs1001"><marker id="ProcessOnMarker1028" markerUnits="userSpaceOnUse" orient="auto" markerWidth="13.144543434498276" markerHeight="18.246037666503607" viewBox="-0.29389262614623657 -0.4045084971874737 13.144543434498276 18.246037666503607" refX="12.0" refY="8.71851033606433"><path id="ProcessOnPath1029" d="M0 0L12.0 8.71851033606433L0 17.43702067212866" stroke="#2d6ec9" stroke-width="1.0" fill="none" transform="matrix(1.0,0.0,0.0,1.0,0.0,0.0)"/></marker><marker id="ProcessOnMarker1036" markerUnits="userSpaceOnUse" orient="auto" markerWidth="13.144543434498276" markerHeight="18.246037666503607" viewBox="-0.29389262614623657 -0.4045084971874737 13.144543434498276 18.246037666503607" refX="12.0" refY="8.71851033606433"><path id="ProcessOnPath1037" d="M0 0L12.0 8.71851033606433L0 17.43702067212866" stroke="#2d6ec9" stroke-width="1.0" fill="none" transform="matrix(1.0,0.0,0.0,1.0,0.0,0.0)"/></marker><marker id="ProcessOnMarker1062" markerUnits="userSpaceOnUse" orient="auto" markerWidth="13.144543434498276" markerHeight="18.246037666503607" viewBox="-0.29389262614623657 -0.4045084971874737 13.144543434498276 18.246037666503607" refX="12.0" refY="8.71851033606433"><path id="ProcessOnPath1063" d="M0 0L12.0 8.71851033606433L0 17.43702067212866" stroke="#2d6ec9" stroke-width="1.0" fill="none" transform="matrix(1.0,0.0,0.0,1.0,0.0,0.0)"/></marker><marker id="ProcessOnMarker1066" markerUnits="userSpaceOnUse" orient="auto" markerWidth="13.144543434498276" markerHeight="18.246037666503607" viewBox="-0.29389262614623657 -0.4045084971874737 13.144543434498276 18.246037666503607" refX="12.0" refY="8.71851033606433"><path id="ProcessOnPath1067" d="M0 0L12.0 8.71851033606433L0 17.43702067212866" stroke="#2d6ec9" stroke-width="1.0" fill="none" transform="matrix(1.0,0.0,0.0,1.0,0.0,0.0)"/></marker><marker id="ProcessOnMarker1075" markerUnits="userSpaceOnUse" orient="auto" markerWidth="13.144543434498276" markerHeight="18.246037666503607" viewBox="-0.29389262614623657 -0.4045084971874737 13.144543434498276 18.246037666503607" refX="12.0" refY="8.71851033606433"><path id="ProcessOnPath1076" d="M0 0L12.0 8.71851033606433L0 17.43702067212866" stroke="#2d6ec9" stroke-width="1.0" fill="none" transform="matrix(1.0,0.0,0.0,1.0,0.0,0.0)"/></marker><marker id="ProcessOnMarker1079" markerUnits="userSpaceOnUse" orient="auto" markerWidth="13.144543434498276" markerHeight="18.246037666503607" viewBox="-0.29389262614623657 -0.4045084971874737 13.144543434498276 18.246037666503607" refX="12.0" refY="8.71851033606433"><path id="ProcessOnPath1080" d="M0 0L12.0 8.71851033606433L0 17.43702067212866" stroke="#2d6ec9" stroke-width="1.0" fill="none" transform="matrix(1.0,0.0,0.0,1.0,0.0,0.0)"/></marker><marker id="ProcessOnMarker1091" markerUnits="userSpaceOnUse" orient="auto" markerWidth="13.144543434498276" markerHeight="18.246037666503607" viewBox="-0.29389262614623657 -0.4045084971874737 13.144543434498276 18.246037666503607" refX="0.5567581822058033" refY="8.71851033606433"><path id="ProcessOnPath1092" d="M0 0L12.0 8.71851033606433L0 17.43702067212866" stroke="#2d6ec9" stroke-width="1.0" fill="none" transform="matrix(-1.0,1.2246467991473532E-16,-1.2246467991473532E-16,-1.0,12.556758182205805,17.43702067212866)"/></marker><marker id="ProcessOnMarker1093" markerUnits="userSpaceOnUse" orient="auto" markerWidth="13.144543434498276" markerHeight="18.246037666503607" viewBox="-0.29389262614623657 -0.4045084971874737 13.144543434498276 18.246037666503607" refX="12.0" refY="8.71851033606433"><path id="ProcessOnPath1094" d="M0 0L12.0 8.71851033606433L0 17.43702067212866" stroke="#2d6ec9" stroke-width="1.0" fill="none" transform="matrix(1.0,0.0,0.0,1.0,0.0,0.0)"/></marker></defs><g id="ProcessOnG1002"><path id="ProcessOnPath1003" d="M150.70189803555783 51.75H1101.2499904632568V653.75H150.70189803555786V51.75Z" fill="none"/><g id="ProcessOnG1004"><g id="ProcessOnG1005" transform="matrix(1.0,0.0,0.0,1.0,170.70189803555783,241.91240108769273)" opacity="1.0"><path id="ProcessOnPath1006" d="M0.0 0.0L910.548092427699 0.0L910.548092427699 180.44551037645635L0.0 180.44551037645635Z" stroke="#ffffff" stroke-width="2.0" stroke-dasharray="none" fill="#ff9999"/></g><g id="ProcessOnG1007" transform="matrix(1.0,0.0,0.0,1.0,170.70189803555783,71.75)" opacity="1.0"><path id="ProcessOnPath1008" d="M0.0 0.0L224.34010911230885 0.0L224.34010911230885 562.0L0.0 562.0Z" stroke="#2d6ec9" stroke-width="1.0" stroke-dasharray="none" fill="none"/><path id="ProcessOnPath1009" d="M0.0 0.0L224.34010911230885 0.0L224.34010911230885 40.0L0.0 40.0Z" stroke="#2d6ec9" stroke-width="1.0" stroke-dasharray="none" fill="#ffffff"/><g id="ProcessOnG1010" transform="matrix(1.0,0.0,0.0,1.0,10.0,10.0)"><text id="ProcessOnText1011" fill="#2d6ec9" font-size="16" x="101.17005455615443" y="16.4" font-family="Garamond" font-weight="normal" font-style="normal" text-decoration="none" family="Garamond" text-anchor="middle" size="16">触摸事件</text></g></g><g id="ProcessOnG1012" transform="matrix(1.0,0.0,0.0,1.0,395.04185217643357,71.75)" opacity="1.0"><path id="ProcessOnPath1013" d="M0.0 0.0L227.627143678057 0.0L227.627143678057 562.0L0.0 562.0Z" stroke="#2d6ec9" stroke-width="1.0" stroke-dasharray="none" fill="none"/><path id="ProcessOnPath1014" d="M0.0 0.0L227.627143678057 0.0L227.627143678057 40.0L0.0 40.0Z" stroke="#2d6ec9" stroke-width="1.0" stroke-dasharray="none" fill="#ffffff"/><g id="ProcessOnG1015" transform="matrix(1.0,0.0,0.0,1.0,10.0,10.0)"><text id="ProcessOnText1016" fill="#2d6ec9" font-size="16" x="102.8135718390285" y="16.4" font-family="Garamond" font-weight="normal" font-style="normal" text-decoration="none" family="Garamond" text-anchor="middle" size="16">辅助操作</text></g></g><g id="ProcessOnG1017" transform="matrix(1.0,0.0,0.0,1.0,622.7086685413947,71.75)" opacity="1.0"><path id="ProcessOnPath1018" d="M0.0 0.0L229.27066096093102 0.0L229.27066096093102 562.0L0.0 562.0Z" stroke="#2d6ec9" stroke-width="1.0" stroke-dasharray="none" fill="none"/><path id="ProcessOnPath1019" d="M0.0 0.0L229.27066096093102 0.0L229.27066096093102 40.0L0.0 40.0Z" stroke="#2d6ec9" stroke-width="1.0" stroke-dasharray="none" fill="#ffffff"/><g id="ProcessOnG1020" transform="matrix(1.0,0.0,0.0,1.0,10.0,10.0)"><text id="ProcessOnText1021" fill="#2d6ec9" font-size="16" x="103.63533048046551" y="16.4" font-family="Garamond" font-weight="normal" font-style="normal" text-decoration="none" family="Garamond" text-anchor="middle" size="16">Bitmap</text></g></g><g id="ProcessOnG1022" transform="matrix(1.0,0.0,0.0,1.0,221.51610725752596,139.44781317064707)" opacity="1.0"><path id="ProcessOnPath1023" d="M0.0 0.0L117.4580339159512 0.0L117.4580339159512 43.754682335659204L0.0 43.754682335659204Z" stroke="none" stroke-width="0.0" stroke-dasharray="none" fill="#2d6ec9"/><g id="ProcessOnG1024" transform="matrix(1.0,0.0,0.0,1.0,10.0,11.877341167829602)"><text id="ProcessOnText1025" fill="#ffffff" font-size="16" x="47.7290169579756" y="16.4" font-family="Garamond" font-weight="normal" font-style="normal" text-decoration="none" family="Garamond" text-anchor="middle" size="16">Down</text></g></g><g id="ProcessOnG1026"><path id="ProcessOnPath1027" d="M280.2451242155016 183.20249550630632L280.2451242155016 246.46008910460378L280.2460927869592 246.46008910460378L280.2460927869592 309.71768270290124" stroke="#2d6ec9" stroke-width="1.0" stroke-dasharray="none" fill="none" marker-end="url(#ProcessOnMarker1028)"/></g><g id="ProcessOnG1030" transform="matrix(1.0,0.0,0.0,1.0,221.51707582898354,309.71768270290124)" opacity="1.0"><path id="ProcessOnPath1031" d="M0.0 0.0L117.4580339159512 0.0L117.4580339159512 43.754682335659204L0.0 43.754682335659204Z" stroke="none" stroke-width="0.0" stroke-dasharray="none" fill="#2d6ec9"/><g id="ProcessOnG1032" transform="matrix(1.0,0.0,0.0,1.0,10.0,11.877341167829602)"><text id="ProcessOnText1033" fill="#ffffff" font-size="16" x="47.7290169579756" y="16.4" font-family="Garamond" font-weight="normal" font-style="normal" text-decoration="none" family="Garamond" text-anchor="middle" size="16">move</text></g></g><g id="ProcessOnG1034"><path id="ProcessOnPath1035" d="M280.2460927869592 353.47236503856044L280.2460927869592 426.2248439221447L280.2453179297931 426.2248439221447L280.2453179297931 498.977322805729" stroke="#2d6ec9" stroke-width="1.0" stroke-dasharray="none" fill="none" marker-end="url(#ProcessOnMarker1036)"/></g><g id="ProcessOnG1038" transform="matrix(1.0,0.0,0.0,1.0,221.5163009718175,498.977322805729)" opacity="1.0"><path id="ProcessOnPath1039" d="M0.0 0.0L117.4580339159512 0.0L117.4580339159512 40.452442159383025L0.0 40.452442159383025Z" stroke="none" stroke-width="0.0" stroke-dasharray="none" fill="#2d6ec9"/><g id="ProcessOnG1040" transform="matrix(1.0,0.0,0.0,1.0,10.0,10.226221079691513)"><text id="ProcessOnText1041" fill="#ffffff" font-size="16" x="47.7290169579756" y="16.4" font-family="Garamond" font-weight="normal" font-style="normal" text-decoration="none" family="Garamond" text-anchor="middle" size="16">up</text></g></g><g id="ProcessOnG1042" transform="matrix(1.0,0.0,0.0,1.0,459.2998603922865,298.91271770007506)" opacity="1.0"><path id="ProcessOnPath1043" d="M0.0 0.0L121.6648866253527 0.0L121.6648866253527 66.47953606632498L0.0 66.47953606632498Z" stroke="none" stroke-width="0.0" stroke-dasharray="none" fill="#2d6ec9"/><g id="ProcessOnG1044" transform="matrix(1.0,0.0,0.0,1.0,10.0,13.239768033162491)"><text id="ProcessOnText1045" fill="#ffffff" font-size="16" x="49.83244331267635" y="16.4" font-family="Garamond" font-weight="normal" font-style="normal" text-decoration="none" family="Garamond" text-anchor="middle" size="16">组装Path</text><text id="ProcessOnText1046" fill="#ffffff" font-size="16" x="49.83244331267635" y="36.4" font-family="Garamond" font-weight="normal" font-style="normal" text-decoration="none" family="Garamond" text-anchor="middle" size="16">(贝塞尔)</text></g></g><g id="ProcessOnG1047" transform="matrix(1.0,0.0,0.0,1.0,925.472187165693,311.91240108769273)" opacity="1.0"><path id="ProcessOnPath1048" d="M0.0 0.0L117.4580339159512 0.0L117.4580339159512 40.452442159383025L0.0 40.452442159383025Z" stroke="none" stroke-width="0.0" stroke-dasharray="none" fill="#2d6ec9"/><g id="ProcessOnG1049" transform="matrix(1.0,0.0,0.0,1.0,10.0,10.226221079691513)"><text id="ProcessOnText1050" fill="#ffffff" font-size="16" x="47.7290169579756" y="16.4" font-family="Garamond" font-weight="normal" font-style="normal" text-decoration="none" family="Garamond" text-anchor="middle" size="16">Render</text></g></g><g id="ProcessOnG1051" transform="matrix(1.0,0.0,0.0,1.0,851.9793295023259,71.75)" opacity="1.0"><path id="ProcessOnPath1052" d="M0.0 0.0L229.27066096093102 0.0L229.27066096093102 562.0L0.0 562.0Z" stroke="#2d6ec9" stroke-width="1.0" stroke-dasharray="none" fill="none"/><path id="ProcessOnPath1053" d="M0.0 0.0L229.27066096093102 0.0L229.27066096093102 40.0L0.0 40.0Z" stroke="#2d6ec9" stroke-width="1.0" stroke-dasharray="none" fill="#ffffff"/><g id="ProcessOnG1054" transform="matrix(1.0,0.0,0.0,1.0,10.0,10.0)"><text id="ProcessOnText1055" fill="#2d6ec9" font-size="16" x="103.63533048046551" y="16.4" font-family="Garamond" font-weight="normal" font-style="normal" text-decoration="none" family="Garamond" text-anchor="middle" size="16">framebuffer</text></g></g><g id="ProcessOnG1056" transform="matrix(1.0,0.0,0.0,1.0,458.77412964297616,141.09855534738801)" opacity="1.0"><path id="ProcessOnPath1057" d="M0.0 0.0L117.4580339159512 0.0L117.4580339159512 40.452442159383025L0.0 40.452442159383025Z" stroke="none" stroke-width="0.0" stroke-dasharray="none" fill="#2d6ec9"/><g id="ProcessOnG1058" transform="matrix(1.0,0.0,0.0,1.0,10.0,10.226221079691513)"><text id="ProcessOnText1059" fill="#ffffff" font-size="16" x="47.7290169579756" y="16.4" font-family="Garamond" font-weight="normal" font-style="normal" text-decoration="none" family="Garamond" text-anchor="middle" size="16">lock屏幕</text></g></g><g id="ProcessOnG1060"><path id="ProcessOnPath1061" d="M338.9741411734772 161.3251543384767L398.8741354082267 161.3251543384767L398.8741354082267 161.3247764270795L458.77412964297616 161.3247764270795" stroke="#2d6ec9" stroke-width="1.0" stroke-dasharray="none" fill="none" marker-end="url(#ProcessOnMarker1062)"/></g><g id="ProcessOnG1064"><path id="ProcessOnPath1065" d="M338.9751097449348 331.5950238707308L399.13748506861066 331.5950238707308L399.13748506861066 332.15248573323754L459.2998603922865 332.15248573323754" stroke="#2d6ec9" stroke-width="1.0" stroke-dasharray="none" fill="none" marker-end="url(#ProcessOnMarker1066)"/></g><g id="ProcessOnG1068" transform="matrix(1.0,0.0,0.0,1.0,692.2223432702463,295.64184763551043)" opacity="1.0"><path id="ProcessOnPath1069" d="M0.0 0.0L117.457983071487 0.0L117.457983071487 72.98661728082095L0.0 72.98661728082095Z" stroke="none" stroke-width="0.0" stroke-dasharray="none" fill="#2d6ec9"/><g id="ProcessOnG1070" transform="matrix(1.0,0.0,0.0,1.0,10.0,16.493308640410476)"><text id="ProcessOnText1071" fill="#ffffff" font-size="16" x="47.7289915357435" y="16.4" font-family="Garamond" font-weight="normal" font-style="normal" text-decoration="none" family="Garamond" text-anchor="middle" size="16">绘制bitmap</text><text id="ProcessOnText1072" fill="#ffffff" font-size="16" x="47.7289915357435" y="36.4" font-family="Garamond" font-weight="normal" font-style="normal" text-decoration="none" family="Garamond" text-anchor="middle" size="16">(drawPath)</text></g></g><g id="ProcessOnG1073"><path id="ProcessOnPath1074" d="M580.9647470176393 332.15248573323754L636.5935451439427 332.15248573323754L636.5935451439427 332.13515627592096L692.2223432702463 332.13515627592096" stroke="#2d6ec9" stroke-width="1.0" stroke-dasharray="none" fill="none" marker-end="url(#ProcessOnMarker1075)"/></g><g id="ProcessOnG1077"><path id="ProcessOnPath1078" d="M809.6803263417332 332.13515627592096L867.5762567537131 332.13515627592096L867.5762567537131 332.13862216738426L925.472187165693 332.13862216738426" stroke="#2d6ec9" stroke-width="1.0" stroke-dasharray="none" fill="none" marker-end="url(#ProcessOnMarker1079)"/></g><g id="ProcessOnG1081" transform="matrix(1.0,0.0,0.0,1.0,454.7338653360408,455.7269555637165)" opacity="1.0"><path id="ProcessOnPath1082" d="M0.0 0.0L117.4580339159512 0.0L117.4580339159512 40.452442159383025L0.0 40.452442159383025Z" stroke="none" stroke-width="0.0" stroke-dasharray="none" fill="#2d6ec9"/><g id="ProcessOnG1083" transform="matrix(1.0,0.0,0.0,1.0,10.0,10.226221079691513)"><text id="ProcessOnText1084" fill="#ffffff" font-size="16" x="47.7290169579756" y="16.4" font-family="Garamond" font-weight="normal" font-style="normal" text-decoration="none" family="Garamond" text-anchor="middle" size="16">unlock屏幕</text></g></g><g id="ProcessOnG1085" transform="matrix(1.0,0.0,0.0,1.0,454.78694020282137,545.2086852735953)" opacity="1.0"><path id="ProcessOnPath1086" d="M0.0 0.0L117.4580339159512 0.0L117.4580339159512 40.452442159383025L0.0 40.452442159383025Z" stroke="none" stroke-width="0.0" stroke-dasharray="none" fill="#2d6ec9"/><g id="ProcessOnG1087" transform="matrix(1.0,0.0,0.0,1.0,10.0,10.226221079691513)"><text id="ProcessOnText1088" fill="#ffffff" font-size="16" x="47.7290169579756" y="16.4" font-family="Garamond" font-weight="normal" font-style="normal" text-decoration="none" family="Garamond" text-anchor="middle" size="16">刷新view</text></g></g><g id="ProcessOnG1089"><path id="ProcessOnPath1090" d="M454.78694020282137 565.4349063532868L424.7338653360408 565.4349063532868L424.7338653360408 475.953176643408L454.7338653360408 475.953176643408" stroke="#2d6ec9" stroke-width="1.0" stroke-dasharray="none" fill="none" marker-start="url(#ProcessOnMarker1091)" marker-end="url(#ProcessOnMarker1093)"/></g><g id="ProcessOnG1095"><path id="ProcessOnPath1096" d="M338.65320994324816 519.2212690687467L381.1855642764795 519.2212690687467L381.1855642764795 519.2212690687467L423.71791860971086 519.2212690687467" stroke="#2d6ec9" stroke-width="1.0" stroke-dasharray="none" fill="none"/></g><g id="ProcessOnG1097" transform="matrix(1.0,0.0,0.0,1.0,177.5,251.25)" opacity="1.0"><path id="ProcessOnPath1098" d="M0.0 0.0L75.0 0.0L75.0 33.75L0.0 33.75Z" stroke="none" stroke-width="0.0" stroke-dasharray="none" fill="none"/><g id="ProcessOnG1099" transform="matrix(1.0,0.0,0.0,1.0,0.0,6.875)"><text id="ProcessOnText1100" fill="#323232" font-size="16" x="36.5" y="16.4" font-family="Garamond" font-weight="normal" font-style="normal" text-decoration="none" family="Garamond" text-anchor="middle" size="16">重复调用</text></g></g></g></g></svg>